%
M48
M72
T01C0.0236
T02C0.0320
T03C0.0400
T04C0.1260
%
T01
X5726Y25851
T02
X5101Y24601
X4101Y24601
X4101Y21601
X5101Y21601
X5101Y18601
X4101Y18601
X4101Y15601
X5101Y15601
X5101Y12601
X4101Y12601
X4101Y9601
X5101Y9601
X5101Y6601
X4101Y6601
X4101Y3601
X5101Y3601
X7101Y3601
X8101Y3601
X8101Y6601
X7101Y6601
X7101Y9601
X8101Y9601
X8101Y12601
X7101Y12601
X7101Y15601
X8101Y15601
X8101Y18601
X7101Y18601
X7101Y21601
X8101Y21601
X8101Y24601
X7101Y24601
X10101Y24601
X11101Y24601
X11101Y21601
X10101Y21601
X10101Y18601
X11101Y18601
X11101Y15601
X10101Y15601
X10101Y12601
X11101Y12601
X11101Y9601
X10101Y9601
X10101Y6601
X11101Y6601
X11101Y3601
X10101Y3601
X13101Y3601
X14101Y3601
X14101Y6601
X13101Y6601
X13101Y9601
X14101Y9601
X14101Y12601
X13101Y12601
X13101Y15601
X14101Y15601
X14101Y18601
X13101Y18601
X13101Y21601
X14101Y21601
X14101Y24601
X13101Y24601
X2101Y24601
X1101Y24601
X1101Y21601
X2101Y21601
X2101Y18601
X1101Y18601
X1101Y15601
X2101Y15601
X2101Y12601
X1101Y12601
X1101Y9601
X2101Y9601
X2101Y6601
X1101Y6601
X1101Y3601
X2101Y3601
T03
X4601Y1151
X5601Y1051
X6601Y1151
X7601Y1051
X8601Y1151
X9601Y1051
X10601Y1151
X9601Y27051
X10601Y27151
X8601Y27151
X7601Y27051
X6601Y27151
X5601Y27051
X4601Y27151
T04
X1101Y1101
X13801Y1101
X13801Y27101
X1101Y27101
M30
