G75*
G70*
%OFA0B0*%
%FSLAX24Y24*%
%IPPOS*%
%LPD*%
%AMOC8*
5,1,8,0,0,1.08239X$1,22.5*
%
%ADD10C,0.0000*%
D10*
X000101Y000101D02*
X000101Y028101D01*
X014801Y028101D01*
X014801Y000101D01*
X000101Y000101D01*
X000471Y001101D02*
X000473Y001151D01*
X000479Y001201D01*
X000489Y001250D01*
X000503Y001298D01*
X000520Y001345D01*
X000541Y001390D01*
X000566Y001434D01*
X000594Y001475D01*
X000626Y001514D01*
X000660Y001551D01*
X000697Y001585D01*
X000737Y001615D01*
X000779Y001642D01*
X000823Y001666D01*
X000869Y001687D01*
X000916Y001703D01*
X000964Y001716D01*
X001014Y001725D01*
X001063Y001730D01*
X001114Y001731D01*
X001164Y001728D01*
X001213Y001721D01*
X001262Y001710D01*
X001310Y001695D01*
X001356Y001677D01*
X001401Y001655D01*
X001444Y001629D01*
X001485Y001600D01*
X001524Y001568D01*
X001560Y001533D01*
X001592Y001495D01*
X001622Y001455D01*
X001649Y001412D01*
X001672Y001368D01*
X001691Y001322D01*
X001707Y001274D01*
X001719Y001225D01*
X001727Y001176D01*
X001731Y001126D01*
X001731Y001076D01*
X001727Y001026D01*
X001719Y000977D01*
X001707Y000928D01*
X001691Y000880D01*
X001672Y000834D01*
X001649Y000790D01*
X001622Y000747D01*
X001592Y000707D01*
X001560Y000669D01*
X001524Y000634D01*
X001485Y000602D01*
X001444Y000573D01*
X001401Y000547D01*
X001356Y000525D01*
X001310Y000507D01*
X001262Y000492D01*
X001213Y000481D01*
X001164Y000474D01*
X001114Y000471D01*
X001063Y000472D01*
X001014Y000477D01*
X000964Y000486D01*
X000916Y000499D01*
X000869Y000515D01*
X000823Y000536D01*
X000779Y000560D01*
X000737Y000587D01*
X000697Y000617D01*
X000660Y000651D01*
X000626Y000688D01*
X000594Y000727D01*
X000566Y000768D01*
X000541Y000812D01*
X000520Y000857D01*
X000503Y000904D01*
X000489Y000952D01*
X000479Y001001D01*
X000473Y001051D01*
X000471Y001101D01*
X013171Y001101D02*
X013173Y001151D01*
X013179Y001201D01*
X013189Y001250D01*
X013203Y001298D01*
X013220Y001345D01*
X013241Y001390D01*
X013266Y001434D01*
X013294Y001475D01*
X013326Y001514D01*
X013360Y001551D01*
X013397Y001585D01*
X013437Y001615D01*
X013479Y001642D01*
X013523Y001666D01*
X013569Y001687D01*
X013616Y001703D01*
X013664Y001716D01*
X013714Y001725D01*
X013763Y001730D01*
X013814Y001731D01*
X013864Y001728D01*
X013913Y001721D01*
X013962Y001710D01*
X014010Y001695D01*
X014056Y001677D01*
X014101Y001655D01*
X014144Y001629D01*
X014185Y001600D01*
X014224Y001568D01*
X014260Y001533D01*
X014292Y001495D01*
X014322Y001455D01*
X014349Y001412D01*
X014372Y001368D01*
X014391Y001322D01*
X014407Y001274D01*
X014419Y001225D01*
X014427Y001176D01*
X014431Y001126D01*
X014431Y001076D01*
X014427Y001026D01*
X014419Y000977D01*
X014407Y000928D01*
X014391Y000880D01*
X014372Y000834D01*
X014349Y000790D01*
X014322Y000747D01*
X014292Y000707D01*
X014260Y000669D01*
X014224Y000634D01*
X014185Y000602D01*
X014144Y000573D01*
X014101Y000547D01*
X014056Y000525D01*
X014010Y000507D01*
X013962Y000492D01*
X013913Y000481D01*
X013864Y000474D01*
X013814Y000471D01*
X013763Y000472D01*
X013714Y000477D01*
X013664Y000486D01*
X013616Y000499D01*
X013569Y000515D01*
X013523Y000536D01*
X013479Y000560D01*
X013437Y000587D01*
X013397Y000617D01*
X013360Y000651D01*
X013326Y000688D01*
X013294Y000727D01*
X013266Y000768D01*
X013241Y000812D01*
X013220Y000857D01*
X013203Y000904D01*
X013189Y000952D01*
X013179Y001001D01*
X013173Y001051D01*
X013171Y001101D01*
X013171Y027101D02*
X013173Y027151D01*
X013179Y027201D01*
X013189Y027250D01*
X013203Y027298D01*
X013220Y027345D01*
X013241Y027390D01*
X013266Y027434D01*
X013294Y027475D01*
X013326Y027514D01*
X013360Y027551D01*
X013397Y027585D01*
X013437Y027615D01*
X013479Y027642D01*
X013523Y027666D01*
X013569Y027687D01*
X013616Y027703D01*
X013664Y027716D01*
X013714Y027725D01*
X013763Y027730D01*
X013814Y027731D01*
X013864Y027728D01*
X013913Y027721D01*
X013962Y027710D01*
X014010Y027695D01*
X014056Y027677D01*
X014101Y027655D01*
X014144Y027629D01*
X014185Y027600D01*
X014224Y027568D01*
X014260Y027533D01*
X014292Y027495D01*
X014322Y027455D01*
X014349Y027412D01*
X014372Y027368D01*
X014391Y027322D01*
X014407Y027274D01*
X014419Y027225D01*
X014427Y027176D01*
X014431Y027126D01*
X014431Y027076D01*
X014427Y027026D01*
X014419Y026977D01*
X014407Y026928D01*
X014391Y026880D01*
X014372Y026834D01*
X014349Y026790D01*
X014322Y026747D01*
X014292Y026707D01*
X014260Y026669D01*
X014224Y026634D01*
X014185Y026602D01*
X014144Y026573D01*
X014101Y026547D01*
X014056Y026525D01*
X014010Y026507D01*
X013962Y026492D01*
X013913Y026481D01*
X013864Y026474D01*
X013814Y026471D01*
X013763Y026472D01*
X013714Y026477D01*
X013664Y026486D01*
X013616Y026499D01*
X013569Y026515D01*
X013523Y026536D01*
X013479Y026560D01*
X013437Y026587D01*
X013397Y026617D01*
X013360Y026651D01*
X013326Y026688D01*
X013294Y026727D01*
X013266Y026768D01*
X013241Y026812D01*
X013220Y026857D01*
X013203Y026904D01*
X013189Y026952D01*
X013179Y027001D01*
X013173Y027051D01*
X013171Y027101D01*
X000471Y027101D02*
X000473Y027151D01*
X000479Y027201D01*
X000489Y027250D01*
X000503Y027298D01*
X000520Y027345D01*
X000541Y027390D01*
X000566Y027434D01*
X000594Y027475D01*
X000626Y027514D01*
X000660Y027551D01*
X000697Y027585D01*
X000737Y027615D01*
X000779Y027642D01*
X000823Y027666D01*
X000869Y027687D01*
X000916Y027703D01*
X000964Y027716D01*
X001014Y027725D01*
X001063Y027730D01*
X001114Y027731D01*
X001164Y027728D01*
X001213Y027721D01*
X001262Y027710D01*
X001310Y027695D01*
X001356Y027677D01*
X001401Y027655D01*
X001444Y027629D01*
X001485Y027600D01*
X001524Y027568D01*
X001560Y027533D01*
X001592Y027495D01*
X001622Y027455D01*
X001649Y027412D01*
X001672Y027368D01*
X001691Y027322D01*
X001707Y027274D01*
X001719Y027225D01*
X001727Y027176D01*
X001731Y027126D01*
X001731Y027076D01*
X001727Y027026D01*
X001719Y026977D01*
X001707Y026928D01*
X001691Y026880D01*
X001672Y026834D01*
X001649Y026790D01*
X001622Y026747D01*
X001592Y026707D01*
X001560Y026669D01*
X001524Y026634D01*
X001485Y026602D01*
X001444Y026573D01*
X001401Y026547D01*
X001356Y026525D01*
X001310Y026507D01*
X001262Y026492D01*
X001213Y026481D01*
X001164Y026474D01*
X001114Y026471D01*
X001063Y026472D01*
X001014Y026477D01*
X000964Y026486D01*
X000916Y026499D01*
X000869Y026515D01*
X000823Y026536D01*
X000779Y026560D01*
X000737Y026587D01*
X000697Y026617D01*
X000660Y026651D01*
X000626Y026688D01*
X000594Y026727D01*
X000566Y026768D01*
X000541Y026812D01*
X000520Y026857D01*
X000503Y026904D01*
X000489Y026952D01*
X000479Y027001D01*
X000473Y027051D01*
X000471Y027101D01*
M02*
