G75*
G70*
%OFA0B0*%
%FSLAX24Y24*%
%IPPOS*%
%LPD*%
%AMOC8*
5,1,8,0,0,1.08239X$1,22.5*
%
%ADD10OC8,0.0520*%
%ADD11C,0.0740*%
%ADD12C,0.0240*%
%ADD13C,0.0100*%
%ADD14C,0.0356*%
D10*
X001101Y003601D03*
X002101Y003601D03*
X002101Y006601D03*
X001101Y006601D03*
X001101Y009601D03*
X002101Y009601D03*
X002101Y012601D03*
X001101Y012601D03*
X001101Y015601D03*
X002101Y015601D03*
X002101Y018601D03*
X001101Y018601D03*
X001101Y021601D03*
X002101Y021601D03*
X002101Y024601D03*
X001101Y024601D03*
X004101Y024601D03*
X005101Y024601D03*
X005101Y021601D03*
X004101Y021601D03*
X004101Y018601D03*
X005101Y018601D03*
X005101Y015601D03*
X004101Y015601D03*
X004101Y012601D03*
X005101Y012601D03*
X005101Y009601D03*
X004101Y009601D03*
X004101Y006601D03*
X005101Y006601D03*
X005101Y003601D03*
X004101Y003601D03*
X007101Y003601D03*
X008101Y003601D03*
X008101Y006601D03*
X007101Y006601D03*
X007101Y009601D03*
X008101Y009601D03*
X008101Y012601D03*
X007101Y012601D03*
X007101Y015601D03*
X008101Y015601D03*
X008101Y018601D03*
X007101Y018601D03*
X007101Y021601D03*
X008101Y021601D03*
X008101Y024601D03*
X007101Y024601D03*
X010101Y024601D03*
X011101Y024601D03*
X011101Y021601D03*
X010101Y021601D03*
X010101Y018601D03*
X011101Y018601D03*
X011101Y015601D03*
X010101Y015601D03*
X010101Y012601D03*
X011101Y012601D03*
X011101Y009601D03*
X010101Y009601D03*
X010101Y006601D03*
X011101Y006601D03*
X011101Y003601D03*
X010101Y003601D03*
X013101Y003601D03*
X014101Y003601D03*
X014101Y006601D03*
X013101Y006601D03*
X013101Y009601D03*
X014101Y009601D03*
X014101Y012601D03*
X013101Y012601D03*
X013101Y015601D03*
X014101Y015601D03*
X014101Y018601D03*
X013101Y018601D03*
X013101Y021601D03*
X014101Y021601D03*
X014101Y024601D03*
X013101Y024601D03*
D11*
X010601Y027151D03*
X009601Y027051D03*
X008601Y027151D03*
X007601Y027051D03*
X006601Y027151D03*
X005601Y027051D03*
X004601Y027151D03*
X004601Y001151D03*
X005601Y001051D03*
X006601Y001151D03*
X007601Y001051D03*
X008601Y001151D03*
X009601Y001051D03*
X010601Y001151D03*
D12*
X010601Y001101D02*
X012601Y003101D01*
X013601Y003101D01*
X013601Y021601D01*
X013101Y021601D01*
X012601Y022101D01*
X009601Y022101D01*
X006601Y022101D01*
X003601Y022101D01*
X004101Y021601D01*
X003601Y022101D02*
X001601Y022101D01*
X001101Y021601D01*
X001601Y019101D02*
X003601Y019101D01*
X006601Y019101D01*
X009601Y019101D01*
X012601Y019101D01*
X013101Y018601D01*
X012601Y016101D02*
X009601Y016101D01*
X006601Y016101D01*
X003601Y016101D01*
X004101Y015601D01*
X003601Y016101D02*
X001601Y016101D01*
X001101Y015601D01*
X001601Y013101D02*
X003601Y013101D01*
X006601Y013101D01*
X009601Y013101D01*
X012601Y013101D01*
X013101Y012601D01*
X012601Y010101D02*
X009601Y010101D01*
X006601Y010101D01*
X003601Y010101D01*
X004101Y009601D01*
X003601Y010101D02*
X001601Y010101D01*
X001101Y009601D01*
X001601Y007101D02*
X003601Y007101D01*
X006601Y007101D01*
X009601Y007101D01*
X012601Y007101D01*
X013101Y006601D01*
X012601Y004101D02*
X009601Y004101D01*
X006601Y004101D01*
X003601Y004101D01*
X004101Y003601D01*
X003601Y004101D02*
X001601Y004101D01*
X001101Y003601D01*
X002101Y003601D02*
X002601Y003101D01*
X007601Y003101D01*
X009601Y001101D01*
X010101Y003601D02*
X009601Y004101D01*
X010101Y006601D02*
X009601Y007101D01*
X010101Y009601D02*
X009601Y010101D01*
X007101Y009601D02*
X006601Y010101D01*
X007101Y012601D02*
X006601Y013101D01*
X007101Y015601D02*
X006601Y016101D01*
X007101Y018601D02*
X006601Y019101D01*
X007101Y021601D02*
X006601Y022101D01*
X007101Y024601D02*
X006601Y025101D01*
X009601Y025101D01*
X010101Y024601D01*
X010601Y024101D01*
X012601Y024101D01*
X013101Y024601D01*
X013601Y025101D02*
X014101Y024601D01*
X013601Y025101D02*
X011601Y025101D01*
X009601Y027101D01*
X009601Y022101D02*
X010101Y021601D01*
X009601Y019101D02*
X010101Y018601D01*
X009601Y016101D02*
X010101Y015601D01*
X012601Y016101D02*
X013101Y015601D01*
X012601Y010101D02*
X013101Y009601D01*
X012601Y004101D02*
X013101Y003601D01*
X007101Y003601D02*
X006601Y004101D01*
X007101Y006601D02*
X006601Y007101D01*
X004101Y006601D02*
X003601Y007101D01*
X001601Y007101D02*
X001101Y006601D01*
X001101Y012601D02*
X001601Y013101D01*
X003601Y013101D02*
X004101Y012601D01*
X004101Y018601D02*
X003601Y019101D01*
X001601Y019101D02*
X001101Y018601D01*
X001101Y024601D02*
X001601Y025101D01*
X003601Y025101D01*
X006601Y025101D01*
X005726Y025851D02*
X006601Y026726D01*
X006601Y027151D01*
X004101Y024601D02*
X003601Y025101D01*
D13*
X009601Y027051D02*
X009601Y027101D01*
X009601Y013101D02*
X010101Y012601D01*
X010601Y001151D02*
X010601Y001101D01*
X009601Y001101D02*
X009601Y001051D01*
D14*
X005726Y025851D03*
M02*
