G75*
G70*
%OFA0B0*%
%FSLAX24Y24*%
%IPPOS*%
%LPD*%
%AMOC8*
5,1,8,0,0,1.08239X$1,22.5*
%
%ADD10C,0.1300*%
%ADD11C,0.0150*%
%ADD12OC8,0.0560*%
%ADD13C,0.0780*%
D10*
X001101Y001101D03*
X013801Y001101D03*
X013801Y027101D03*
X001101Y027101D03*
D11*
X003439Y023651D02*
X003439Y022801D01*
X003723Y023368D02*
X003439Y023651D01*
X003723Y023368D02*
X004006Y023651D01*
X004006Y022801D01*
X004360Y022943D02*
X004360Y023510D01*
X004502Y023651D01*
X004785Y023651D01*
X004927Y023510D01*
X004927Y022943D01*
X004785Y022801D01*
X004502Y022801D01*
X004360Y022943D01*
X005281Y022943D02*
X005423Y022801D01*
X005706Y022801D01*
X005848Y022943D01*
X005848Y023510D01*
X005706Y023651D01*
X005423Y023651D01*
X005281Y023510D01*
X006166Y022943D02*
X006166Y022801D01*
X006308Y022801D01*
X006308Y022943D01*
X006166Y022943D01*
X006662Y022943D02*
X006804Y022801D01*
X007087Y022801D01*
X007229Y022943D01*
X007229Y023510D01*
X007087Y023651D01*
X006804Y023651D01*
X006662Y023510D01*
X007559Y023651D02*
X007843Y023651D01*
X007701Y023651D02*
X007701Y022801D01*
X007843Y022801D02*
X007559Y022801D01*
X008196Y023651D02*
X008764Y023651D01*
X008480Y023651D02*
X008480Y022801D01*
X009117Y022943D02*
X009117Y023651D01*
X009117Y022943D02*
X009259Y022801D01*
X009543Y022801D01*
X009684Y022943D01*
X009684Y023651D01*
X010038Y023368D02*
X010038Y022801D01*
X010038Y023226D02*
X010605Y023226D01*
X010605Y023368D02*
X010321Y023651D01*
X010038Y023368D01*
X010605Y023368D02*
X010605Y022801D01*
X010959Y023651D02*
X011526Y023651D01*
X011242Y023651D02*
X011242Y022801D01*
X002588Y001651D02*
X002305Y001651D01*
X002163Y001510D01*
X002163Y001368D01*
X002730Y000801D01*
X002163Y000801D01*
X002730Y001510D02*
X002588Y001651D01*
X003084Y001368D02*
X003367Y000801D01*
X003651Y001368D01*
D12*
X004101Y003601D03*
X005101Y003601D03*
X005101Y006601D03*
X004101Y006601D03*
X004101Y009601D03*
X005101Y009601D03*
X005101Y012601D03*
X004101Y012601D03*
X004101Y015601D03*
X005101Y015601D03*
X005101Y018601D03*
X004101Y018601D03*
X004101Y021601D03*
X005101Y021601D03*
X005101Y024601D03*
X004101Y024601D03*
X002101Y024601D03*
X001101Y024601D03*
X001101Y021601D03*
X002101Y021601D03*
X002101Y018601D03*
X001101Y018601D03*
X001101Y015601D03*
X002101Y015601D03*
X002101Y012601D03*
X001101Y012601D03*
X001101Y009601D03*
X002101Y009601D03*
X002101Y006601D03*
X001101Y006601D03*
X001101Y003601D03*
X002101Y003601D03*
X007101Y003601D03*
X008101Y003601D03*
X008101Y006601D03*
X007101Y006601D03*
X007101Y009601D03*
X008101Y009601D03*
X008101Y012601D03*
X007101Y012601D03*
X007101Y015601D03*
X008101Y015601D03*
X008101Y018601D03*
X007101Y018601D03*
X007101Y021601D03*
X008101Y021601D03*
X008101Y024601D03*
X007101Y024601D03*
X010101Y024601D03*
X011101Y024601D03*
X011101Y021601D03*
X010101Y021601D03*
X010101Y018601D03*
X011101Y018601D03*
X011101Y015601D03*
X010101Y015601D03*
X010101Y012601D03*
X011101Y012601D03*
X011101Y009601D03*
X010101Y009601D03*
X010101Y006601D03*
X011101Y006601D03*
X011101Y003601D03*
X010101Y003601D03*
X013101Y003601D03*
X014101Y003601D03*
X014101Y006601D03*
X013101Y006601D03*
X013101Y009601D03*
X014101Y009601D03*
X014101Y012601D03*
X013101Y012601D03*
X013101Y015601D03*
X014101Y015601D03*
X014101Y018601D03*
X013101Y018601D03*
X013101Y021601D03*
X014101Y021601D03*
X014101Y024601D03*
X013101Y024601D03*
D13*
X010601Y027151D03*
X009601Y027051D03*
X008601Y027151D03*
X007601Y027051D03*
X006601Y027151D03*
X005601Y027051D03*
X004601Y027151D03*
X004601Y001151D03*
X005601Y001051D03*
X006601Y001151D03*
X007601Y001051D03*
X008601Y001151D03*
X009601Y001051D03*
X010601Y001151D03*
M02*
